<svg xmlns="http://www.w3.org/2000/svg" width="1536" height="256" viewBox="0 0 1536 256"><defs><linearGradient id="street" x2="0" y2="1"><stop stop-color="#2e4354"/><stop offset="1" stop-color="#151a31"/></linearGradient><linearGradient id="market" x2="1" y2="1"><stop stop-color="#314c55"/><stop offset="1" stop-color="#20213d"/></linearGradient><linearGradient id="grid" x2="0" y2="1"><stop stop-color="#24345d"/><stop offset="1" stop-color="#191531"/></linearGradient><linearGradient id="lotus" x2="1" y2="1"><stop stop-color="#2e5e61"/><stop offset="1" stop-color="#27213f"/></linearGradient><linearGradient id="wall" x2="0" y2="1"><stop stop-color="#263652"/><stop offset="1" stop-color="#101426"/></linearGradient><pattern id="rain" width="48" height="42" patternUnits="userSpaceOnUse"><path d="M10 4l-5 12m34 9l-5 12" stroke="#59ecff" stroke-width="2" opacity=".2"/><circle cx="24" cy="24" r="2" fill="#ff43c5" opacity=".23"/></pattern></defs><g stroke="#090d1c" stroke-width="5"><g><rect width="256" height="256" fill="url(#street)"/><path d="M0 63h256M0 129h256M0 194h256M41 0v63m77-63v63m76-63v63M18 63v66m71-66v66m72-66v66m67-66v66M48 129v65m78-65v65m69-65v65M20 194v62m70-62v62m77-62v62m61-62v62" stroke="#5a7285" stroke-width="2" opacity=".38"/><rect width="256" height="256" fill="url(#rain)" stroke="none"/></g><g transform="translate(256)"><rect width="256" height="256" fill="url(#market)"/><path d="M0 48h256M0 129h256M0 211h256M48 0v256m80-256v256m80-256v256" stroke="#ff42be" stroke-width="3" opacity=".23"/><path d="M0 218q50-44 99-6t157-28" fill="none" stroke="#39e5e5" stroke-width="10" opacity=".32"/></g><g transform="translate(512)"><rect width="256" height="256" fill="url(#grid)"/><path d="M0 32h256M0 96h256M0 160h256M0 224h256M32 0v256m96-256v256m96-256v256" stroke="#4ff4ff" stroke-width="4" opacity=".32"/><path d="M0 0l256 256M256 0L0 256" stroke="#f13cff" stroke-width="5" opacity=".2"/></g><g transform="translate(768)"><rect width="256" height="256" fill="url(#lotus)"/><circle cx="128" cy="128" r="92" fill="none" stroke="#4ef1ed" stroke-width="8" opacity=".46"/><path d="M128 36l18 63 60-22-48 43 50 36-63-15-8 65-15-64-63 14 50-37-47-43 60 23z" fill="#28284b" stroke="#ff55cf" stroke-width="4" opacity=".82"/></g><g transform="translate(1024)"><rect x="3" y="3" width="250" height="250" rx="12" fill="url(#wall)"/><path d="M8 60h240M8 127h240M8 198h240M65 8v52m119-52v52M41 60v67m122-67v67m-75 0v71m113-71v71m-135 0v50m113-50v50" stroke="#4d6582" stroke-width="5" opacity=".58"/><path d="M14 20h228" stroke="#43eaff" stroke-width="8" opacity=".4"/></g><g transform="translate(1280)"><rect x="3" y="3" width="250" height="250" rx="12" fill="#17142d"/><path d="M31 230L128 25l97 205z" fill="#36244f" stroke="#724183" stroke-width="7"/><circle cx="128" cy="145" r="44" fill="none" stroke="#ff3ab8" stroke-width="10" opacity=".8"/><path d="M128 91l18 36 39 6-28 28 7 39-36-18-36 18 7-39-28-28 39-6z" fill="#f7ef69" opacity=".56"/></g></g></svg>
